# xmcd
#
# Track frame offsets:
#	150
#	15283
#	50870
#	82604
#	139262
#
# Disc length: 2323 seconds
#
# Revision: 1
# Processed by: cddbd v1.5.2PL0 Copyright (c) Steve Scherf et al.
# Submitted via: audiograbber 1.83.01
#
DISCID=33091105
DTITLE=Grateful Dead - 78-05-06 Patrick Gym, University of Vermont, Burlington 
DTITLE=VT
DYEAR=1900
DGENRE=
TTITLE0=Me and My Uncle
TTITLE1=Big River
TTITLE2=Deal
TTITLE3=Samson and Delilah
TTITLE4=Sunrise
EXTD=
EXTT0=
EXTT1=
EXTT2=
EXTT3=
EXTT4=
PLAYORDER=
